<svg xmlns="http://www.w3.org/2000/svg" viewBox="0 0 400 225" fill="none">
  <rect width="400" height="225" fill="#FB923C"/>
  <rect x="20" y="20" width="360" height="185" fill="#FFF" fill-opacity="0.15" rx="16"/>
  <path d="M200 60c-77.2 0-140 16.8-140 40s62.8 40 140 40 140-16.8 140-40-62.8-40-140-40z" fill="#FFF" fill-opacity="0.3"/>
  <path d="M200 85c-53.9 0-100 12.5-100 25s46.1 25 100 25 100-12.5 100-25-46.1-25-100-25z" fill="#FFF" fill-opacity="0.2"/>
  <path d="M200 110c-39.8 0-75 7.9-75 18s35.2 18 75 18 75-7.9 75-18-35.2-18-75-18z" fill="#FFF" fill-opacity="0.15"/>
  <text x="200" y="175" font-family="Arial, sans-serif" font-size="28" font-weight="bold" fill="#FFF" text-anchor="middle" letter-spacing="2">VOUCHER</text>
</svg>